<?xml version="1.0" encoding="UTF-8"?>
<svg id="Layer_1" data-name="Layer 1" xmlns="http://www.w3.org/2000/svg" viewBox="0 0 510 259">
  <defs>
    <style>
      .cls-1 {
        fill: #09a686;
      }
    </style>
  </defs>
  <path class="cls-1" d="m192.54,11.75c-4.96,8.77-9.89,17.56-14.89,26.32-15.42,27-30.87,53.99-46.31,80.98-7.36,12.86-14.71,25.72-22.08,38.58-3.04,5.32-6.04,10.66-9.18,15.92-3.45,5.79-1.85,9.87,4.34,11.39,8.75,2.15,17.63,2.07,26.15-1.46,4.18-1.73,7.18-4.85,9.36-8.78,9.12-16.44,18.2-32.9,27.42-49.28,2.91-5.18,6.03-10.28,8.81-15.49,5.02-9.41,10.4-18.61,15.36-28.04.83-1.59,1.84-2.07,3.59-2.07,20.7.06,41.4-.06,62.1.16,2.83.03,5.77-.67,8.68.48.9.35,2.36-1.04,3.67-.44-2.24,5.13-4.66,10.24-7.75,14.95-2.71,4.13-4.46,8.79-7.09,12.86-1.87,2.88-2.88,6.36-5.77,8.74-1.55,1.28-2.11,3.78-3.1,5.74-2.03,4.02-4.63,7.74-6.73,11.65-2.2,4.1-4.41,8.23-6.71,12.27-14.38,25.25-28.8,50.47-43.33,75.63-7.94,13.74-19.61,22.46-35.4,25.28-3.67.65-7.38.23-11.09.22-35.33-.14-70.66-.05-105.99-.12-4.73,0-9.42.03-14.08-1.75-8.88-3.38-14.18-9.71-16.94-18.52-.19-.6.03-1.45-1.06-1.26v-15.4c.54.27.87-.09.93-.5.34-2.34,1.61-4.28,2.75-6.25,15.36-26.55,30.02-53.48,44.9-80.29,10.24-18.44,20.35-36.96,30.56-55.41,10.36-18.72,20.77-37.42,31.16-56.12,18.38-.03,36.76-.07,55.14-.08,7.52,0,15.04.06,22.56.09Z"/>
  <path class="cls-1" d="m304.82,11.73c8.29-.03,16.59-.07,24.88-.08,17.36-.01,34.73,0,52.09,0,21.65,0,43.29,0,64.94,0,10.11,0,20.22,0,30.33,0,8.82,0,17.63-.02,26.45.04.67,0,2.1-.85,1.95,1-1.01.4-1.14,1.42-1.55,2.22-3.52,6.91-7.02,13.84-10.52,20.76-7.02,13.89-14.08,27.76-21.01,41.7-.92,1.85-1.9,2.57-4.03,2.56-24.21-.08-48.42-.05-72.63-.07-2.43,0-4.05.73-4.7,3.36-.4,1.62-1.75,2.88-2.57,4.4-9.3,17.29-19.09,34.31-28.9,51.32-5.79,10.03-11.39,20.17-17.08,30.26-3.38,6-6.61,12.1-10.22,17.96-4.27,6.93-7.91,14.21-11.98,21.24-7.09,12.23-14.02,24.55-20.94,36.88-.82,1.46-1.67,2.03-3.37,2.02-14.37-.07-28.74-.04-43.11-.04-9.77,0-19.54,0-29.31,0h-3.27c31.74-55.93,63.25-111.44,94.94-167.26-1.21-.05-2.1-.13-2.99-.13-13,0-26.01-.05-39.01.04-2.34.02-2.56-.5-1.54-2.52,10.8-21.25,21.53-42.54,32.28-63.82.31-.61.58-1.23.87-1.85Z"/>
</svg>